<svg id="Слой_1" xmlns="http://www.w3.org/2000/svg" width="42" height="33" viewBox="0 0 42 33">
    <path fill="#FFF"
          d="M40.8 28.9v-.2c0-.1 0-.1-.1-.2 0-.1-.1-.1-.2-.2-.1 0-.2-.1-.3-.1-.1 0-.2 0-.3.1-.1 0-.1.1-.2.2 0 .1-.1.1-.1.2V31.1c0 .2 0 .4.1.6.1.1.3.2.5.2s.3-.1.4-.2c.1-.1.2-.3.2-.5v-2.3zm1.1 2.2c0 .3 0 .6-.1.8-.1.2-.2.4-.4.6-.2.2-.3.3-.5.4-.2.1-.4.1-.7.1-.3 0-.6-.1-.8-.2-.2-.1-.4-.2-.5-.4l-.3-.6c-.1-.2-.1-.5-.1-.8v-2c0-.2 0-.4.1-.7l.3-.6c.1-.2.3-.3.5-.4.2-.1.5-.2.8-.2.3 0 .5.1.8.2.2.1.4.3.5.4l.3.6c.1.2.1.4.1.7v2.1zm-5.4-4c.2 0 .5 0 .7.1.2.1.4.2.5.3.1.1.3.3.3.5.1.2.1.4.2.5l-1.1.3v-.2c0-.1-.1-.1-.1-.2l-.2-.2c-.1 0-.2-.1-.3-.1-.1 0-.2 0-.3.1-.1 0-.1.1-.2.2 0 .1-.1.1-.1.2V31c0 .2 0 .4.1.6.1.2.2.2.5.2.2 0 .4-.1.5-.2.1-.1.1-.3.1-.5v-.4h-.7v-1h1.8V31c0 .3 0 .6-.1.8-.1.2-.2.5-.3.6-.1.2-.3.3-.5.4-.3.2-.5.2-.8.2-.3 0-.6-.1-.8-.2-.2-.1-.4-.2-.5-.4l-.3-.6c-.1-.2-.1-.5-.1-.8v-2c0-.2 0-.4.1-.7l.3-.6c.1-.2.3-.3.5-.4.2-.2.5-.2.8-.2zm-3.2 1.8c0-.2-.1-.4-.2-.5-.1-.1-.3-.1-.4-.1h-.6v1.3h.6c.2 0 .3-.1.5-.2.1-.1.1-.3.1-.5zm0 4l-.7-2.3h-.5v2.3H31v-5.8h1.8c.2 0 .4 0 .6.1.2.1.4.2.5.3.2.1.3.3.4.5.1.2.1.5.1.8 0 .4-.1.7-.2 1-.1.3-.3.5-.6.6l.9 2.5h-1.2zm-5.7 0v-5.8h3.1v1.1h-2v1.2h1.7v1.1h-1.7v1.2h2v1.1l-3.1.1zm-1.6 0L25 31l-.6-1.2V33h-1.1v-5.8h1l.9 1.7.7 1.4v-3.1H27V33h-1v-.1zm-6.1 0v-5.8H23v1.1h-2v1.2h1.7v1.1H21v1.2h2v1.1l-3.1.1zm-1.5 0l-1-1.9-.6-1.2V33h-1.1v-5.8h1l.9 1.7.7 1.4v-3.1h1.1V33h-1v-.1zm-5.2-3.1l-.2.9h.8l-.1-.8-.2-1.2-.3 1.1zm.8 2h-1.3c0 .2-.1.4-.1.6 0 .2-.1.4-.1.6h-1.2l1.5-5.8H14l1.5 5.8h-1.2l-.3-1.2zm-3.8-.7c0-.2 0-.4-.1-.5-.1-.1-.2-.2-.4-.2h-.6v1.3h.6c.2 0 .4-.1.5-.2v-.4zm0-2.3c0-.2 0-.3-.1-.4-.1-.1-.2-.1-.4-.1h-.6v1.2h.6c.2 0 .4-.1.4-.2 0-.2.1-.3.1-.5zm1.1 2.4c0 .3 0 .5-.1.8l-.3.6c-.1.2-.3.3-.5.3-.2.1-.4.1-.6.1H7.9v-5.8h1.7c.5 0 .9.1 1.2.4.3.3.4.7.4 1.2 0 .2 0 .4-.1.6-.1.2-.3.4-.5.5.1 0 .2.1.3.2.1.1.2.2.2.3.1.1.1.2.1.4.1.1.1.3.1.4zm-3.9-4.1v4c0 .3 0 .6-.1.8-.1.2-.2.4-.4.6-.2.2-.3.3-.5.4-.2.1-.4.1-.7.1-.3 0-.6-.1-.8-.2-.2-.1-.4-.2-.5-.4l-.3-.6c-.1-.3-.1-.5-.1-.8v-3.9h1.1V31c0 .2 0 .4.1.6.1.1.3.2.5.2s.3-.1.4-.2c.1-.1.2-.3.2-.5v-4h1.1zm-6.1 2.2c0-.1.1-.2.1-.2 0-.1.1-.2.2-.4l.3-.6c.1-.2.3-.6.6-1h1.3l-1.5 2.4c.3.6.5 1.1.8 1.7.3.6.5 1.1.8 1.7H2.8c-.2-.4-.4-.8-.5-1.2-.2-.4-.3-.8-.5-1.2l-.5.8V33H.2v-5.8h1.1v2.1zM0 14.3v.6h17.2l-.3-.6H0zM0 13v.6h16.5l-.3-.6H0zm0-1.2v.6h15.9l-.2-.3.2-.3H0zm0-1.3v.6h16.2l.3-.6H0zm0-1.3v.6h16.9l.3-.6H0zm41.4-.6C40.1 3.6 35.8 0 30.7 0H11.3v1.9c0 .4-.3.7-.7.7-.4 0-.7-.3-.7-.7V0H0v8.6h17.5l3.5-7v4.9h14.1c1.3 0 2.3.3 2.3.7 0 .4-1 .7-2.3.7H21v.6h20.4v.1zm.3 1.3c0-.2-.1-.4-.1-.6H21v.6h20.7zm.2 1.2c0-.2 0-.4-.1-.6H21v.6h20.9zm0 1.3v-.6H21v.6h20.9zm-.1 1.3c0-.2 0-.4.1-.6H21v.6h20.8zm-.2 1.2c0-.2.1-.4.1-.6H21v.6h20.6zm-10.9 9.3c5.1 0 9.4-3.7 10.8-8.7H21v.6h14.1c1.3 0 2.3.3 2.3.7 0 .4-1 .7-2.3.7H21v5l-3.5-7.2H0V24h9.8v-1.9c0-.4.3-.7.7-.7.4 0 .7.3.7.7V24h19.5v.2z"/>
    <path fill="#FFCC04"
          d="M20.5 12.1c-1-1.7-1.2-3.3 0-5l.3-.4v.5c0 .3.1.6.1.9 0 .2.1.5.2.8 0 .1.1.2.2.3 0-.5 0-1.1.2-1.6.1-.2.1-.3.2-.5.1-.1.1-.2.2-.4.2-.4 0-.9-.1-1.3l-.1-.2h.2c.3 0 .5 0 .7.2.4.2.7.7.8 1.2 0-.2.1-.4.2-.5.1-.3.4-.8.7-1l.2-.1.1.1.1.1c.2-.4.5-.8.7-1.2.1-.2.4-.5.6-.6h.1l.1.1c.4.5.5 1 .3 1.6-.1.2-.2.4-.2.6 0 .1 0 .1-.1.2l.3-.3c.4-.3.8-.4 1.3-.5.5-.1 1-.2 1.4-.3l.3-.1-.1.3c-.1.3-.2.6-.4.9.1-.1.2-.1.4-.1.7-.2 1.6-.2 2.2-.6l.5-.3-.1.5c-.2.6-.5 1.1-.9 1.6h.5c.2 0 .3.1.5.2.1.1.2.1.3.1l.3.1-.2.2-.1.1c.7 0 1.4 0 2.1.1.7 0 1.5.1 2.1.4.3.1.5.3.7.5l.2.3-.4.1c-.7.1-1.3.2-2 .4l-1.2.3c-.2.1-.4.1-.6.2.3.2.5.5.6.9l.1.1h-.2c-.1 0-.6.1-.8.2.4.5 1.2.8 1.7 1.1 1 .5 1.8 1.1 1.8 2.4v.4l-.3-.3c-.5-.4-1.2-.5-1.8-.5-.4-.1-.9-.1-1.3-.2.1.3.2.6.2.9v.4l-.3-.3c-.1-.1-.2-.1-.4-.2.1.2.1.5.2.7.1.5.1.9.2 1.4.1.6.3 1.1.6 1.7l.1.2-.2.1h-.3c-.5 0-.9-.3-1.2-.7-.3-.3-.6-.7-.8-1.1 0 .5-.2.9-.5 1.3l-.2.2-.1-.3s0-.1-.1-.2c-.1.1-.1.3-.2.4-.2.4-.3.8-.4 1.2-.1.6-.1 1.3 0 1.9v.2h-.2c-1.6-.2-2.3-1.2-1.8-2.7.1-.2.2-.3.3-.5-.4.3-.9.7-1 1.1l-.1.4-.2-.3c-.2-.4-.4-.9-.2-1.3.1-.1.1-.2.2-.3-.2 0-.6.5-.8.7-.1.1-.2.3-.4.4-.7.5-1.7.9-2.6.9-.7 0-1.6-.1-2-.7l-.2-.3h.4c.6 0 1.2 0 1.6-.5.2-.2.4-.5.6-.7l.1-.1c-.3.1-.7.1-1 .1-.5 0-1.1 0-1.4-.4l-.2-.2-.1-.2h.2c.3-.1.6-.1.8-.3.2-.1.4-.3.6-.4 0 0 .1 0 .1-.1h-.7c-.5 0-1.1.1-1.6.1-1.5 0-2.6-.5-3.1-2.1l-.1-.5.3.1c.5.2 1.3.4 1.8.3.3 0 .5-.1.8-.3.1-.1.3-.1.4-.2-.1 0-.2-.1-.3-.1-.2 0-.4-.1-.6-.1-.6-.2-.8-.8-1.1-1.3V12l.4.2c.2.1.8 0 1.1-.1h.8z"/>
    <path fill="#13110C"
          d="M29.9 22.2h-.5c-.8-.1-1.4-.4-1.8-.9-.3-.5-.4-1.1-.3-1.9-.1.2-.3.3-.3.5l-.2.8-.5-.7c-.2-.3-.3-.7-.3-1l-.1.2-.3.3-.1.1c-.8.6-1.7.9-2.7 1-.5 0-1.6 0-2.1-.8l-.4-.6h.7c.6 0 1.1 0 1.4-.4l.3-.3s0-.1.1-.1h-.5c-.7 0-1.3-.1-1.6-.5-.1-.1-.1-.2-.2-.3l-.2-.5.5-.1c.3-.1.5-.1.8-.3.1-.1.2-.1.2-.2H20c-1.8 0-2.8-.7-3.3-2.3l-.2-.7.7.2c.5.2 1.2.4 1.8.3.2 0 .4-.1.6-.2-.1 0-.2 0-.3-.1-.6-.2-1-.9-1.2-1.4l-.4-.9.9.4c.1.1.5 0 .8-.1h.2c.1 0 .3 0 .4-.1-1-1.8-.9-3.4.2-4.9l.6-.8.1 1c0 .4.1.6.1.9V8c0-.3.1-.5.2-.7.1-.2.1-.3.2-.5.1-.1.1-.2.2-.3.1-.3 0-.7-.1-1.1l-.1-.4h.5c.3 0 .6 0 .9.2.3.2.5.4.7.8.1-.1.4-.9.8-1l.3-.1.1.1c.2-.3.4-.7.6-1 .2-.2.4-.6.7-.6l.2-.1.1.2c.5.6.6 1.2.4 1.8v.1c.3-.3.7-.4 1.1-.4.2 0 .3-.1.5-.1.3-.1.6-.1.9-.2l.6-.2-.2.6c0 .1-.1.3-.2.5.2-.1.5-.1.7-.2.5-.1 1-.2 1.4-.4l1-.6-.4 1.1c-.2.5-.4.9-.7 1.3h.1c.2 0 .4.1.6.2.1.1.1.1.2.1l.6.2-.2.2h1.7c.7 0 1.5.1 2.2.4.3.1.6.3.8.6l.6.5-.8.1c-.7.1-1.4.3-2 .4-.4.3-.8.4-1.2.5-.1 0-.2.1-.3.1.2.2.3.4.4.7l.2.5-.5.1c-.1 0-.3 0-.5.1.3.3.7.5 1.1.6.1.1.2.1.3.2 1.1.6 1.9 1.2 2 2.5v.9L36 15c-.4-.3-1.1-.4-1.7-.5h-.2c-.3 0-.6-.1-.8-.1.1.2.1.4.1.6l.1.8-.6-.4v.2c0 .2 0 .4.1.6 0 .3.1.5.1.8.1.6.3 1.1.6 1.6l.3.4-.5.1h-.3c-.6 0-1.1-.4-1.4-.7-.2-.2-.4-.4-.6-.7-.1.3-.3.6-.5.9l-.5.5-.1-.3c-.1.4-.3.7-.4 1.1-.1.5-.1 1.1 0 1.9l.2.4zm-2.1-2.9c-.2.7-.1 1.3.2 1.7.3.4.8.7 1.5.8-.1-.8-.1-1.4 0-2 .1-.5.2-.9.4-1.3.1-.1.1-.3.2-.4l.2-.5.2.5v.1c.3-.3.4-.7.5-1.1v-.6l.3.5c.3.4.5.8.8 1 .4.4.7.6 1.1.6h.2c-.3-.6-.5-1.1-.7-1.7-.1-.3-.1-.6-.1-.8 0-.2 0-.4-.1-.5 0-.2-.1-.4-.2-.7l-.2-.5.5.3c.1.1.2.1.2.2 0 0 .1 0 .1.1 0-.2-.1-.5-.2-.8l-.1-.4.4.1c.4.1.8.2 1.1.2h.2c.6.1 1.3.2 1.9.6-.1-1.1-.7-1.7-1.7-2.2-.1 0-.2-.1-.3-.1-.5-.3-1.1-.5-1.5-1l-.2-.2.3-.1c.3-.1.7-.2.8-.2-.1-.3-.3-.5-.5-.8l-.3-.2.3-.1c.2-.1.4-.1.6-.2l1.2-.3c.6-.1 1.3-.3 2-.4-.2-.2-.4-.3-.7-.5-.6-.3-1.3-.4-2-.4h-2.6l.4-.3s.1 0 .1-.1c-.1 0-.2-.1-.3-.2-.1-.1-.2-.1-.4-.2h-.9l.3-.4c.4-.4.7-.9.9-1.4-.5.3-1 .4-1.5.5-.2 0-.4.1-.7.1-.1 0-.2.1-.3.1l-.5.2.3-.5c.2-.3.3-.6.3-.8-.3.1-.6.1-.9.2-.2 0-.3.1-.5.1-.4.1-.9.2-1.2.5-.1.1-.2.1-.3.2l-.6.6.2-.7c0-.1 0-.1.1-.2 0-.1.1-.1.1-.2.1-.1.1-.3.2-.4.2-.5.1-.9-.3-1.4-.1 0-.4.3-.5.5-.3.3-.6.8-.8 1.1l-.1.2-.2-.2-.1-.1c-.2.1-.5.5-.6.8-.1.2-.1.3-.2.5l-.2.9-.2-.9c-.1-.5-.3-.9-.7-1.1-.2-.1-.4-.1-.6-.1.2.4.3.9.1 1.4 0 .2 0 .3-.1.4-.1.2-.2.3-.2.5-.1.4-.2.9-.1 1.5v.3l-.3-.2c-.1-.1-.2-.2-.3-.4-.1-.3-.2-.6-.2-.8-.1-.3-.1-.6-.1-.9-1.1 1.4-1.1 3 0 4.8l.2.4-.4-.1h-.7-.2c-.3.1-.7.1-1 0 .2.4.5 1 .9 1.2.1 0 .2.1.3.1h.2c.1 0 .2.1.3.1l.5.2-.5.2c-.1 0-.2.1-.4.2-.3.2-.5.3-.9.3-.6 0-1.3-.2-1.9-.3.4 1.3 1.3 1.9 2.9 1.9H22.4l.5.1-.4.3h-.1l-.2.2c-.1.1-.2.2-.4.3-.3.2-.5.3-.9.3 0 .1.1.1.1.2.2.2.6.4 1.3.3.3 0 .6-.1.9-.1l.7-.1-.5.5-.1.1c-.1.1-.2.2-.3.4l-.3.3c-.5.5-1.1.6-1.7.6.4.6 1.4.7 1.8.6.8 0 1.7-.4 2.4-.9.1-.1.2-.2.2-.3l.1-.2c.3-.3.6-.7.9-.7h.6l-.5.4-.2.2c-.2.3-.1.7.1 1.1.2-.5.7-.9 1.1-1.2l.6-.4-.3.6c.2.2.1.4 0 .6z"/>
    <path fill="#13110C"
          d="M26.8 17.2c-2.7 0-4.8-2.2-4.8-4.8 0-2.5 1.8-4.5 4.3-4.8h.5c2.7 0 4.8 2.2 4.8 4.8 0 2.6-2.2 4.8-4.8 4.8zm0-9.3h-.5c-2.2.3-3.9 2.1-3.9 4.4 0 2.4 2 4.4 4.4 4.4 2.4 0 4.4-2 4.4-4.4 0-2.4-2-4.4-4.4-4.4z"/>
    <path fill="#13110C"
          d="M25.3 15l-.5.1-.1.3.1.5.5-.9zm.7-1.2l-.8.2v.1l.4.6.4-.9zm.5.9l.6-1.1-.9.2.3.9zm.4 1l.3-.8v-.1h-.6l.3.9zm.3.2h-.3l.4.9-.1-.9zm-.1-.9l-.2.8h.3l-.1-.8zm-.1-1.3l-.5 1h.6l-.1-1zM24.9 15l.5-.1.1-.2-.4-.6-.2.9zm-.3 1.1h.2l.1-.2-.1-.5-.2.7zm1.2-3.1l-.6.9v.1l.8-.2-.2-.8zm-.3 0l.3-.1-.1-.6-.2.7zm-.2.7l.5-.8-.4.1-.1.7zm1.6-1.1l-.4.1.4.7v-.8zm-.3.1l.4-.1-.1-.6-.3.7zm.4.8l-.5-.8-.4 1 .9-.2zm.4 2.4v.5-.5zm.1-1l-.3-.1v.1l.2.8.1-.8zm.1-.9l-.5-.3.4 1.1.1-.8zm.4 1v-.7l-.3-.3.3 1zm.3.9V15.3l-.2-.1.2.7zm-.2-1.3v.5l.2.2-.2-.7zm-.4-.7l.3.2-.3-1.3v1.1zm-.6-.3l.4.3-.5-1.8.1 1.5zm.1 1.1l.3.1-.3-1v.9zm.1 1.1h.1l-.1-.6v.6zm-.4-4.1l-1.2.3v.1l.2.8.2.7.8-1.9zm-.6-.2l.5-.4-.9.3.4.1zm-.6.4l.5-.4-.4-.1-.1.5zm.6-.4l-.5.4 1-.3-.5-.1zm.5-.4l-.5.4.5.1v-.5zm-.5-.1l-.5.4.9-.3-.4-.1zm.5-.4l-.4.4.5.1-.1-.5zm-.5.3l.4-.3-.7.2.3.1zm-.5.4l.4-.4-.4-.1v.5zm.6-.9l-.4.4.8-.3-.4-.1zm.4-.3l-.3.3.4.1-.1-.4zm-.3-.2l.3.1v-.4l-.3.3zm-.4-.2l.3.1.3-.3-.6.2zm.3.2l-.3-.1-.1.4.4-.3zm0 .5l.4-.3-.4-.1-.4.2.4.2zm-.5.4l.4-.4-.3-.1-.1.5zm.5-1.4l-.2-.1-.1.4.3-.3zm.3.1l-.3-.1-.3.3.6-.2zm-.2-.1l.3.1v-.4l-.3.3zm-.3-.2l.2.1.2-.2-.4.1zm.3-.3l.2.1v-.3l-.2.2zm0-.5l-.2.3v.1l.2.1.2-.2-.2-.3zm.2-.2l-.1.2.2.1-.1-.3zm-.2.2l.1-.2-.3.1.2.1zm-.2.2l.2-.2-.1-.1-.1.3zm.2.3l-.2-.1-.1.3.3-.2zm.2.1l-.2-.1-.3.3.5-.2zm-.2-1l-.1.2.3-.1-.2-.1zm.2-.1l-.1.1.1.1v-.2zm-.2.1l.1-.2-.1.2zm-.1.1l.1-.1-.1-.1v.2zm-1.7 2.5h-.2.2zm1-.6h.2v-.2l-.2.2zm-1 .5l.2-.1-.2.1zm.3 0l-.1-.1-.1.1h.2zm0-.1l.1.1.4-.1H25zm.5 0l-.2-.2-.3.1.5.1zm-.1-.2l.2.2.1-.3-.3.1zm.5.1l-.2-.3-.1.4.3-.1zm-.2-.3l.2.2V10h-.2zm1.4-.4l-.2-.1.2.3v-.2zm-.2-.1h.2v-.3h-.2v.3zm.2 0H27h.1zm.5.3l-.4-.1v.2l.4-.1zm1.2-.6l-.1-.1-.2.2.3-.1zm.2-.1h-.2l.1.1.1-.1zm-1.4.6l-.3-.3h-.1v.1l.4.2zm.2-.4l-.4.1.3.3.1-.4zm.2.3l-.2-.2-.2.4.4-.2zm-.2-.2l.2.2.4-.2h-.6zm.6 0l-.1-.2-.4.1.5.1zm-.1-.2l.1.2.2-.2h-.3zm-2.4.6l-.5.1.1.1.4-.2zm-.4.2l-.1-.1v.2l.1-.1zm0-.2l.5-.1.1-.4-.6.5zm-.2.3v-.2l-.6.4.6-.2zm2.5-1v.2h.1l-.1-.2zm0 .2v-.2l-.5.3.5-.1zm.1-.2l.1.1.6-.1h-.7zm-.7.3l.5-.3h-.6l.1.3zm-.4-1.6v.3h.1l-.1-.3zm0-.1v-.1.1zm.1.1l.1.2.8-.2h-.9zm-1.3.8l.7-.4V8l-.7.6zm1.6-.3l-.2-.2v.3l.2-.1zm.5-.4h.2-.2zm-.2 0h.2v-.1l-.2.1zm-.5.2l.3.2V8l-.3.1zm-1.3.7h-.2.2zm0-.1l.1-.1-.1.1zm1-1.1l-.2.3.2-.1v-.2zm-.1-.5l-.1.2.1.1v-.3zm0 0v-.2.2zm-.1.7l.2-.3-.1-.1-.1.4zm-.6.8l.1.1.2-.1h-.3zm0 .1h-.2.2zm.2-.3l.1.1.1-.2v-.1l-.2.2zm.1.2l-.1-.1-.2.1h.3zm1.2-.6l.1.1.2-.1h-.3zm.1.1l-.1-.1-.1.2.2-.1zm-.1 3.8l-.4-.2v.1l.6 1.9v-1.1l-.1-.3-.1-.4zm-.2-.4l-.2.2.5.2-.3-.4zm.2-.1l-.2.1.2.3v-.4zm-.2.1l.2-.1-.4-.2.2.3zm-.2.1l.2-.1-.2-.3v.4zm.1-.6l-.2.1.4.2-.2-.3zm.2-.2l-.1.1.2.3-.1-.4zm-.2-.4l.2.3-.1-.4-.1.1zm-.2-.3l.2.3.1-.1-.3-.2zm.2-.2l-.2.1.3.2-.1-.3zm0 0v.2-.2zm0 0l-.1-.2.1.2zm-.2.1l.1-.1-.2-.3.1.4zm.1.4l-.1-.2v.4l.1-.2zm.2.3l-.2-.3-.1.1.3.2zm-.1.2l.2-.1-.4-.2.2.3zm-.2.1l.1-.1-.2-.2.1.3zm0-2.2zm0 0zm.1.2l-.1-.1-.1.1h.2zm-.1-.6zm-.1-.2l.1-.1h-.1v.1zm0 .2zm.1 0v.2l.1.1V8.4h-.1zm-2.5 7.9l1.2-4.4.3-1.6c-.4.1-.9.2-1.3.3l-.1-.1 1.7-1.3.1-.6c-.2.1-.5.1-.7.2l-.1-.1.9-.8.2-1.2h.2v.1l.2 1.1h1V8l-1 .4.1.6H29l.1.2-1.8.8c.1.8.2 1.6.3 2.3l1.1 4.2h-.1l-.2-.7v.3l.2.5-.6-1.4-.3-1-.1.8-.2 1.9h-.2l-1.2-3-1.3 2.6c-.1-.1-.2-.1-.3-.2z"/>
</svg>