<svg width="166" height="38" viewBox="0 0 166 38" fill="none" xmlns="http://www.w3.org/2000/svg">
<path d="M113.446 1.52405H108.228L99.1509 22.5489H105.233L113.446 1.52405Z" fill="#F47731"/>
<path d="M3.46998 30.1209H1V29.0345H7.14408V30.1209H4.6741V36.799H3.43911V30.1209H3.46998Z" fill="#F47731"/>
<path d="M20.9144 36.799H15.3569V29.0345H20.9144V30.2487H16.5919V32.3576H20.76V33.5079H16.5919V35.5529H20.9144V36.799Z" fill="#F47731"/>
<path d="M35.8579 35.8404C35.4874 36.2238 35.0551 36.5114 34.5611 36.7031C34.0671 36.8949 33.5731 36.9907 33.0483 36.9907C32.5234 37.0227 31.9985 36.9588 31.5045 36.767C31.0105 36.5753 30.5474 36.2878 30.1769 35.9043C29.8064 35.5209 29.4977 35.0736 29.3124 34.5623C29.1272 34.0511 29.0345 33.5079 29.0654 32.9647C29.0345 32.4215 29.1272 31.8783 29.3124 31.367C29.4977 30.8558 29.7755 30.4085 30.146 30.025C30.5165 29.6416 30.9488 29.354 31.4428 29.1623C31.9368 28.9706 32.4616 28.8747 32.9865 28.9067C33.5114 28.9067 34.0054 29.0025 34.4685 29.1943C34.9316 29.386 35.3639 29.6736 35.7344 30.057L34.9625 30.8558C34.4376 30.3446 33.7584 30.057 33.0174 30.057C32.6469 30.025 32.2764 30.0889 31.9368 30.2487C31.5971 30.3765 31.2884 30.6002 31.0105 30.8878C30.7635 31.1753 30.5474 31.4949 30.4239 31.8463C30.3004 32.1978 30.2387 32.5812 30.2695 32.9647C30.2387 33.3481 30.3004 33.7315 30.4239 34.083C30.5474 34.4345 30.7635 34.754 31.0105 35.0416C31.2575 35.2972 31.5971 35.5209 31.9368 35.6487C32.2764 35.7765 32.6469 35.8404 33.0174 35.8085C33.7275 35.7765 34.4376 35.4889 34.9625 34.9457L35.8579 35.8404Z" fill="#F47731"/>
<path d="M49.3499 36.799V33.5718H45.3671V36.799H44.1938V29.0345H45.4288V32.4215H49.4117V29.0345H50.5849V36.799H49.3499Z" fill="#F47731"/>
<path d="M64.7564 34.5624V29.0345H65.9914V36.799H65.0652L60.7736 31.3351V36.799H59.5386V29.0345H60.4648L64.7564 34.5624Z" fill="#F47731"/>
<path d="M82.1696 32.9966C82.1696 34.0511 81.7682 35.0736 81.0272 35.8404C80.3171 36.5753 79.3291 37.0227 78.2794 37.0227C77.2605 37.0227 76.2725 36.6073 75.5315 35.8404C74.8214 35.1055 74.3892 34.083 74.3892 32.9966C74.3583 32.4534 74.4509 31.9422 74.6361 31.4309C74.8214 30.9197 75.0993 30.4724 75.4698 30.0889C75.8403 29.7055 76.2725 29.4179 76.7356 29.1943C77.2296 29.0025 77.7236 28.9067 78.2485 28.9067C78.7734 28.8747 79.2982 28.9706 79.7614 29.1623C80.2554 29.354 80.6876 29.6416 81.0581 30.025C81.4286 30.4085 81.7065 30.8558 81.8917 31.367C82.1387 31.9102 82.2005 32.4534 82.1696 32.9966ZM78.3103 35.9043C78.6807 35.9363 79.0204 35.8724 79.36 35.7126C79.6996 35.5848 80.0084 35.3611 80.2554 35.1055C80.5024 34.8499 80.6876 34.4984 80.8111 34.1469C80.9346 33.7954 80.9655 33.412 80.9346 33.0286C80.9655 32.6451 80.9037 32.2617 80.7802 31.9102C80.6567 31.5588 80.4715 31.2392 80.2245 30.9517C79.9775 30.6641 79.6687 30.4404 79.3291 30.3126C78.9895 30.1528 78.6499 30.0889 78.2794 30.0889C77.9089 30.057 77.5384 30.1209 77.1679 30.2807C76.8283 30.4085 76.4886 30.6321 76.2416 30.9197C75.9946 31.2073 75.7785 31.5588 75.6859 31.9102C75.5624 32.2937 75.5315 32.6771 75.5933 33.0605C75.5624 33.444 75.5933 33.8274 75.7168 34.1789C75.8403 34.5304 76.0255 34.8499 76.3034 35.1375C76.5504 35.3931 76.89 35.6167 77.2296 35.7446C77.5693 35.8724 77.9398 35.9043 78.3103 35.8724V35.9043Z" fill="#F47731"/>
<path d="M91.8954 29.0345V35.6487H95.8783V36.799H90.7222V29.0345H91.8954Z" fill="#F47731"/>
<path d="M111.161 32.9966C111.161 34.0511 110.76 35.0736 110.019 35.8404C109.309 36.5753 108.321 37.0227 107.271 37.0227C106.252 37.0227 105.264 36.6073 104.523 35.8404C103.813 35.1055 103.381 34.083 103.381 32.9966C103.35 32.4534 103.443 31.9422 103.628 31.4309C103.813 30.9197 104.091 30.4724 104.461 30.0889C104.832 29.7055 105.264 29.4179 105.727 29.1943C106.221 29.0025 106.715 28.9067 107.24 28.9067C107.765 28.8747 108.29 28.9706 108.753 29.1623C109.247 29.354 109.679 29.6416 110.05 30.025C110.42 30.4085 110.698 30.8558 110.883 31.367C111.13 31.9102 111.192 32.4534 111.161 32.9966ZM107.302 35.9043C107.672 35.9363 108.012 35.8724 108.352 35.7126C108.691 35.5848 109 35.3611 109.247 35.1055C109.494 34.8499 109.679 34.4984 109.803 34.1469C109.926 33.7954 109.957 33.412 109.926 33.0286C109.957 32.6451 109.895 32.2617 109.772 31.9102C109.648 31.5588 109.463 31.2392 109.216 30.9517C108.969 30.6641 108.66 30.4404 108.321 30.3126C107.981 30.1528 107.642 30.0889 107.271 30.0889C106.901 30.057 106.53 30.1209 106.16 30.2807C105.82 30.4085 105.48 30.6321 105.233 30.9197C104.986 31.2073 104.77 31.5588 104.678 31.9102C104.554 32.2937 104.523 32.6771 104.585 33.0605C104.554 33.444 104.585 33.8274 104.708 34.1789C104.832 34.5304 105.017 34.8499 105.295 35.1375C105.542 35.3931 105.882 35.6167 106.221 35.7446C106.561 35.8724 106.931 35.9043 107.302 35.8724V35.9043Z" fill="#F47731"/>
<path d="M125.24 30.792C124.684 30.2488 123.943 29.9292 123.202 29.9292C122.832 29.9292 122.431 29.9931 122.091 30.1529C121.751 30.3127 121.412 30.5363 121.165 30.8239C120.918 31.1115 120.702 31.463 120.578 31.8144C120.455 32.1979 120.393 32.5813 120.455 32.9647C120.424 33.3482 120.485 33.7316 120.64 34.0831C120.763 34.4346 120.979 34.7541 121.226 35.0097C121.473 35.2653 121.813 35.489 122.153 35.6168C122.492 35.7446 122.863 35.8085 123.233 35.7766C123.913 35.8085 124.53 35.5529 125.055 35.1056V33.5399H122.955V32.4535H126.166V35.6168C125.796 36.0322 125.364 36.3837 124.839 36.6073C124.345 36.831 123.789 36.9588 123.233 36.9269C122.708 36.9908 122.184 36.8949 121.69 36.7351C121.196 36.5434 120.732 36.2559 120.362 35.8724C119.991 35.489 119.683 35.0417 119.497 34.5304C119.312 34.0192 119.22 33.476 119.25 32.9328C119.22 32.3896 119.312 31.8464 119.497 31.3352C119.683 30.8239 119.991 30.3446 120.362 29.9612C120.732 29.5778 121.196 29.2582 121.69 29.0665C122.184 28.8748 122.708 28.747 123.233 28.7789C124.283 28.7789 125.302 29.1943 126.043 29.9292L125.24 30.792Z" fill="#F47731"/>
<path d="M134.78 36.799V29.0345H135.954V36.799H134.78Z" fill="#F47731"/>
<path d="M150.557 36.799H145V29.0345H150.496V30.2487H146.173V32.3576H150.31V33.5079H146.142V35.5529H150.465L150.557 36.799Z" fill="#F47731"/>
<path d="M163.679 30.728C163.463 30.4404 163.155 30.2167 162.846 30.0889C162.506 29.9292 162.167 29.8653 161.796 29.8972C160.808 29.8972 160.036 30.3126 160.036 31.0475C160.036 31.7824 160.87 32.0061 161.858 32.1339C162.846 32.2617 164.914 32.8049 164.914 34.5623C164.914 36.3197 163.402 36.9907 161.796 36.9907C161.148 37.0546 160.499 36.9268 159.913 36.6392C159.326 36.3197 158.863 35.8404 158.554 35.2333L159.419 34.6262C159.666 35.0416 160.005 35.3611 160.407 35.5848C160.808 35.8085 161.271 35.9043 161.734 35.8724C162.599 35.8724 163.618 35.5848 163.618 34.5943C163.618 33.6357 162.753 33.444 161.673 33.3162C160.623 33.1883 158.739 32.709 158.739 31.0795C158.739 29.4499 160.252 28.8428 161.673 28.8428C163.093 28.8428 163.834 29.0984 164.482 30.1848L163.679 30.728Z" fill="#F47731"/>
<path d="M17.3017 22.5489H1.06152V1.52405H16.8694V6.47671H6.68073V9.51221H16.2828V14.369H6.68073V17.5962H17.3017V22.5489V22.5489Z" fill="white"/>
<path d="M56.6054 7.33866C55.2161 6.31617 53.5488 5.80493 51.8507 5.86883C50.4305 5.86883 49.1029 6.28422 49.1029 7.43451C49.1029 8.58481 50.4614 9.0641 52.4374 9.31972C56.4819 9.7351 60.7118 11.4286 60.7118 16.2854C60.7118 21.1422 56.3893 23.0913 51.8199 23.1233C48.1766 23.1233 45.5523 22.5162 42.7427 19.4168L45.8919 15.6463C46.6946 16.4452 47.6209 17.0523 48.6398 17.4676C49.6586 17.883 50.7701 18.0747 51.8507 18.0108C53.7341 18.0108 55 17.3398 55 16.1256C55 14.9114 53.8267 14.4321 51.6037 14.1765C47.1578 13.7611 43.3293 12.6108 43.3293 7.37061C43.3293 2.16233 47.5591 1.01203 51.8199 1.01203C54.5677 0.884219 57.2538 1.77889 59.4459 3.50434L56.6054 7.33866Z" fill="white"/>
<path d="M67.5661 6.47677H61.6382V1.58801H79.2059V6.50872H73.2162V22.6448H67.4735L67.5661 6.47677Z" fill="white"/>
<path d="M91.525 1.52405C95.5696 1.52405 98.9041 3.40926 98.9041 7.40334C98.9659 8.23411 98.8115 9.06488 98.4101 9.79979C98.0087 10.5347 97.4221 11.1098 96.6811 11.4613C97.5456 11.9406 98.2557 12.6436 98.7497 13.5063C99.2437 14.369 99.4907 15.3596 99.4907 16.382C99.4907 21.111 95.3226 22.517 91.6485 22.5809H81.0894V1.52405H91.525ZM86.8012 9.51222H91.3707C92.5439 9.51222 93.1923 8.90512 93.1923 7.94654C93.1923 7.72287 93.1614 7.4992 93.0688 7.27553C92.9761 7.05186 92.8526 6.86015 92.6674 6.73233C92.513 6.57257 92.2969 6.47671 92.0808 6.38085C91.8647 6.285 91.6485 6.285 91.4324 6.31695H86.8012V9.51222ZM86.8012 17.8838H91.6485C93.0996 17.8838 93.8098 17.085 93.8098 15.8708C93.8098 14.6566 93.0996 13.8578 91.6485 13.8578H86.7703V17.8838H86.8012Z" fill="white"/>
<path d="M138.239 13.027C138.115 10.4708 138.115 9.57612 138.053 8.7134V1.52405H143.858V22.5489H138.98L130.489 11.2057V22.5489H124.685V1.52405H129.563L138.239 13.027Z" fill="white"/>
<path d="M164.976 19.8338C163.895 20.9202 162.629 21.7829 161.24 22.3261C159.851 22.9012 158.338 23.1569 156.825 23.093C148.859 23.093 145.741 17.8847 145.679 12.1652C145.617 6.44563 149.199 1.01367 156.825 1.01367C158.276 1.01367 159.727 1.30125 161.086 1.84444C162.444 2.41959 163.648 3.25036 164.698 4.33675L161.178 7.91545C160.622 7.3403 159.943 6.86101 159.202 6.54148C158.461 6.22196 157.658 6.06219 156.856 6.09415C152.935 6.09415 151.391 9.35332 151.391 12.1652C151.391 14.945 152.811 17.9805 156.856 17.9805C158.646 17.9486 160.375 17.1817 161.672 15.8717L164.976 19.8338Z" fill="white"/>
<path d="M114.033 1.52405L111.47 8.20215L113.755 14.0814H109.185L107.24 19.098H115.669L117.028 22.5489H123.172L114.033 1.52405Z" fill="white"/>
<path d="M33.5728 1.52405H28.3549L33.2331 14.0814H26.7803L24.7734 19.098H35.1474L36.5059 22.5489H42.65L33.5728 1.52405Z" fill="white"/>
<path d="M32.9243 1.52405H27.7373L18.6602 22.5489H24.7425L32.9243 1.52405Z" fill="white"/>
</svg>
