<?xml version="1.0" ?>
<!DOCTYPE svg  PUBLIC '-//W3C//DTD SVG 1.1//EN'  'http://www.w3.org/Graphics/SVG/1.1/DTD/svg11.dtd'>
<!-- Uploaded to: SVG Repo, www.svgrepo.com, Generator: SVG Repo Mixer Tools -->
<svg width="800px" height="800px" viewBox="0 0 512 512" version="1.1" xml:space="preserve" xmlns="http://www.w3.org/2000/svg" xmlns:xlink="http://www.w3.org/1999/xlink">
<g id="_x34_89_x2C__laptop_x2C__computer_x2C__book_x2C__hardware">
<g>
<polygon points="491,406 491,429.07 379.01,476 131.16,476 21,428.04 21,406 41,406 171,406 171,436     341,436 341,406 471,406   " style="fill:#32313F;"/>
<g>
<g>
<g>
<polygon points="180.333,446.167 350.333,446.167 350.333,416.167 480.333,416.167 491,416.167 491,406        471,406 341,406 341,436 180.333,436      " style="fill:#252530;"/>
</g>
<g>
<polygon points="30.333,416.167 50.333,416.167 171,416.167 171,406 41,406 21,406 21,428.04        30.333,432.104      " style="fill:#252530;"/>
</g>
</g>
</g>
<rect height="30" style="fill:#F7D794;" width="170" x="171" y="406"/>
<polygon points="179.625,415.375 341,415.375 341,406 171,406 171,436 179.625,436   " style="fill:#E2BF7F;"/>
<path d="M471,366v40H341H171H41v-40V138.75C41,120.66,55.66,106,73.75,106H111v150h145h145V106h37.25    c18.09,0,32.75,14.66,32.75,32.75V366z" style="fill:#E0F8FF;"/>
<g>
<g>
<g>
<path d="M122.667,267.334h145h145v-150h37.25c5.93,0,11.485,1.583,16.282,4.337       C460.442,112.272,450.081,106,438.25,106H401v150H256H122.667V267.334z" style="fill:#CCE5E4;"/>
</g>
<g>
<path d="M52.667,377.334v-227.25c0-18.09,14.66-32.75,32.75-32.75H111V106H73.75       C55.66,106,41,120.66,41,138.75V366v40h11.667V377.334z" style="fill:#CCE5E4;"/>
</g>
</g>
</g>
<path d="M401,106v150H256V90.33c0-30,25.19-54.33,56.27-54.33H401V106z M369.93,186v-20h-20.72v20H369.93z     M338.86,186v-20H318.14v20H338.86z M307.79,186v-20h-20.72v20H307.79z" style="fill:#FFF2D4;"/>
<g>
<g>
<g>
<path d="M265,99.663c0-30,25.19-54.33,56.27-54.33H401V36h-88.73C281.19,36,256,60.33,256,90.33V256h9       V99.663z" style="fill:#E5D0A8;"/>
</g>
</g>
</g>
<path d="M256,90.33V256H111V106V36h88.73C230.81,36,256,60.33,256,90.33z" style="fill:#FCD884;"/>
<path d="M120.375,116.125v-70h88.73c14.147,0,27.063,5.052,36.95,13.375    C235.903,45.308,218.947,36,199.73,36H111v70v150h9.375V116.125z" style="fill:#EABF6A;"/>
<rect height="50" style="fill:#57606F;" width="82.86" x="142.07" y="96"/>
<polygon points="151.07,106 224.93,106 224.93,96 142.07,96 142.07,146 151.07,146   " style="fill:#414A56;"/>
<rect height="20" width="20.72" x="349.21" y="166"/>
<rect height="20" width="20.721" x="318.14" y="166"/>
<rect height="20" width="20.72" x="287.07" y="166"/>
<rect height="20" width="20" x="281" y="356"/>
<rect height="20" width="20" x="241" y="356"/>
<rect height="20" width="20" x="201" y="356"/>
<path d="M379.01,481H131.16c-0.687,0-1.366-0.142-1.996-0.416l-110.16-47.96C17.18,431.83,16,430.03,16,428.04V406    c0-2.762,2.239-5,5-5h20c2.761,0,5,2.238,5,5s-2.239,5-5,5H26v13.764L132.201,471h245.804L486,425.744V411h-15    c-2.762,0-5-2.238-5-5s2.238-5,5-5h20c2.762,0,5,2.238,5,5v23.07c0,2.015-1.209,3.833-3.067,4.611l-111.99,46.93    C380.33,480.868,379.673,481,379.01,481z"/>
<path d="M341,441H171c-2.761,0-5-2.238-5-5v-30c0-2.762,2.239-5,5-5s5,2.238,5,5v25h160v-25c0-2.762,2.238-5,5-5s5,2.238,5,5v30    C346,438.762,343.762,441,341,441z"/>
<path d="M471,411H41c-2.761,0-5-2.238-5-5V138.75C36,117.935,52.935,101,73.75,101H111c2.761,0,5,2.239,5,5s-2.239,5-5,5H73.75    C58.449,111,46,123.449,46,138.75V401h420V138.75c0-15.301-12.448-27.75-27.75-27.75H401c-2.762,0-5-2.239-5-5s2.238-5,5-5h37.25    c20.815,0,37.75,16.935,37.75,37.75V406C476,408.762,473.762,411,471,411z"/>
<path d="M256,261H111c-2.761,0-5-2.238-5-5V36c0-2.761,2.239-5,5-5h88.73C233.514,31,261,57.615,261,90.33c0,2.761-2.238,5-5,5    c-2.761,0-5-2.239-5-5C251,63.129,228,41,199.73,41H116v210h140c2.762,0,5,2.239,5,5C261,258.762,258.762,261,256,261z"/>
<path d="M401,261H256c-2.761,0-5-2.238-5-5V90.33C251,57.615,278.485,31,312.27,31H401c2.762,0,5,2.239,5,5v220    C406,258.762,403.762,261,401,261z M261,251h135V41h-83.73C283.999,41,261,63.129,261,90.33V251z"/>
<path d="M224.93,151h-82.86c-2.761,0-5-2.239-5-5V96c0-2.761,2.239-5,5-5h82.86c2.761,0,5,2.239,5,5v50    C229.93,148.761,227.691,151,224.93,151z M147.07,141h72.86v-40h-72.86V141z"/>
<path d="M224.93,181h-82.86c-2.761,0-5-2.239-5-5s2.239-5,5-5h82.86c2.761,0,5,2.239,5,5S227.691,181,224.93,181z"/>
<path d="M224.93,211h-82.86c-2.761,0-5-2.239-5-5s2.239-5,5-5h82.86c2.761,0,5,2.239,5,5S227.691,211,224.93,211z"/>
<path d="M369.93,211H287.07c-2.762,0-5-2.239-5-5s2.238-5,5-5h82.859c2.762,0,5,2.239,5,5S372.691,211,369.93,211z"/>
<path d="M369.93,151H287.07c-2.762,0-5-2.239-5-5s2.238-5,5-5h82.859c2.762,0,5,2.239,5,5S372.691,151,369.93,151z"/>
<path d="M369.93,121H287.07c-2.762,0-5-2.239-5-5s2.238-5,5-5h82.859c2.762,0,5,2.239,5,5S372.691,121,369.93,121z"/>
<path d="M171,371H41c-2.761,0-5-2.238-5-5s2.239-5,5-5h130c2.761,0,5,2.238,5,5S173.761,371,171,371z"/>
<path d="M471,371H331c-2.762,0-5-2.238-5-5s2.238-5,5-5h140c2.762,0,5,2.238,5,5S473.762,371,471,371z"/>
</g>
</g>
<g id="Layer_1"/>
</svg>