<svg version="1.0" xmlns="http://www.w3.org/2000/svg" width="500.000000pt" height="500.000000pt"
     viewBox="0 0 900.000000 900.000000" preserveAspectRatio="xMidYMid meet">
    <g transform="translate(0.000000,900.000000) scale(0.100000,-0.100000)" fill="#fbbf02" stroke="none">
        <path d="M4245 8594 c-104 -7 -210 -17 -235 -23 -25 -6 -65 -10 -90 -11 -25 0 -63 -7 -85 -15 -22 -8 -59 -14 -83 -15 -24 0 -53 -5 -64 -11 -11 -6 -44 -15 -72 -20 -68 -11 -155 -33 -189 -47 -16 -7 -38 -12 -51 -12 -12 0 -26 -4 -31 -9 -6 -6 -28 -14 -50 -20 -22 -5 -56 -15 -75 -22 -104 -36 -181 -65 -230 -87 -19 -8 -48 -21 -65 -28 -87 -37 -155 -68 -200 -92 -114 -59 -162 -85 -190 -102 -16 -10 -48 -28 -70 -40 -102 -56 -390 -257 -460 -322 -16 -15 -33 -28 -38 -28 -4 0 -15 -8 -25 -17 -10 -10 -54 -49 -97 -88 -103 -90 -275 -262 -345 -344 -30 -35 -62 -71 -70 -80 -8 -9 -36 -43 -61 -76 -26 -33 -57 -71 -69 -85 -12 -14 -34 -43 -48 -65 -14 -22 -45 -66 -69 -97 -23 -31 -43 -59 -43 -63 0 -6 -40 -66 -51 -75 -3 -3 -9 -12 -12 -20 -4 -8 -16 -28 -27 -45 -11 -16 -25 -41 -30 -55 -6 -13 -14 -27 -18 -30 -4 -3 -17 -25 -30 -50 -12 -25 -27 -53 -32 -62 -24 -44 -30 -56 -51 -98 -26 -55 -75 -162 -96 -210 -8 -19 -21 -48 -29 -63 -8 -16 -14 -36 -14 -46 0 -9 -7 -26 -15 -37 -8 -10 -15 -26 -15 -34 0 -8 -7 -28 -15 -44 -8 -15 -15 -38 -15 -50 0 -12 -6 -30 -14 -41 -7 -11 -16 -33 -18 -50 -3 -16 -10 -43 -16 -60 -6 -16 -17 -55 -25 -85 -8 -30 -22 -80 -30 -110 -22 -80 -37 -155 -47 -236 -4 -40 -12 -80 -18 -90 -5 -11 -12 -62 -16 -114 -4 -52 -11 -113 -16 -135 -13 -51 -13 -740 -1 -782 5 -18 13 -78 16 -135 4 -57 11 -111 16 -120 5 -9 13 -50 18 -90 12 -91 28 -170 47 -228 8 -25 14 -55 14 -66 0 -12 7 -35 15 -50 8 -16 15 -40 15 -54 1 -14 7 -36 15 -50 8 -14 14 -36 15 -50 0 -15 5 -31 11 -37 6 -6 14 -26 19 -44 11 -46 30 -98 46 -131 8 -14 14 -33 14 -41 0 -9 6 -28 14 -44 13 -26 21 -44 63 -140 9 -21 20 -45 25 -53 4 -8 11 -22 14 -30 14 -34 52 -109 72 -145 7 -11 15 -27 19 -35 4 -8 24 -44 46 -79 21 -35 43 -74 48 -85 5 -12 31 -53 57 -93 196 -298 319 -449 562 -694 212 -213 363 -336 639 -523 80 -54 103 -68 136 -86 11 -6 34 -19 50 -30 17 -11 41 -25 55 -30 13 -6 27 -14 30 -18 3 -4 37 -22 75 -40 39 -19 77 -38 85 -43 8 -5 26 -14 40 -19 34 -14 54 -23 130 -58 36 -16 85 -37 110 -47 25 -9 59 -23 75 -30 17 -7 39 -16 50 -18 22 -6 98 -33 130 -46 43 -17 123 -41 140 -41 9 0 31 -6 48 -14 18 -8 53 -17 79 -21 26 -3 50 -10 53 -16 4 -5 23 -9 43 -9 20 -1 55 -7 77 -15 22 -8 56 -15 75 -15 19 0 53 -5 75 -11 22 -6 84 -15 138 -20 54 -4 115 -13 135 -19 60 -16 720 -13 817 5 44 8 106 14 138 15 32 0 67 4 77 10 10 5 52 14 92 19 91 12 170 28 228 47 25 8 57 14 72 14 15 0 29 4 33 9 3 6 27 13 53 17 26 3 52 10 57 15 6 4 29 12 50 18 22 5 65 19 95 31 30 12 64 24 75 27 11 3 34 11 50 18 17 7 50 21 75 30 64 25 105 43 180 77 84 38 116 53 165 73 70 29 165 79 165 86 0 4 10 11 22 15 36 11 115 62 263 171 77 57 146 108 153 114 7 6 43 34 80 62 37 28 76 61 87 72 11 11 63 58 115 104 182 162 342 340 511 566 116 156 167 230 199 290 6 11 19 34 30 50 11 17 24 39 30 50 6 11 19 34 30 50 10 17 30 53 45 80 14 28 29 57 34 65 5 8 24 47 41 85 17 39 36 77 41 85 5 8 12 22 15 30 9 24 35 83 50 113 8 16 14 36 14 46 0 9 7 26 15 37 8 10 15 28 15 40 0 11 7 29 15 40 8 10 15 28 15 39 0 11 7 33 15 49 8 15 15 36 15 45 0 9 7 29 15 45 8 15 15 40 15 55 0 15 7 36 15 47 8 10 15 32 15 47 0 15 7 44 15 64 8 19 15 49 15 65 0 16 7 45 15 65 8 19 15 52 15 72 0 21 6 60 14 87 8 27 16 85 20 130 3 44 11 94 17 110 18 43 19 880 1 911 -7 13 -15 60 -18 105 -4 46 -12 105 -20 132 -8 27 -14 67 -14 88 0 22 -4 47 -10 57 -5 10 -14 43 -19 72 -15 78 -36 160 -49 192 -7 16 -12 38 -12 50 -1 12 -7 33 -15 47 -8 14 -15 36 -15 50 0 14 -7 34 -15 44 -8 11 -15 27 -15 37 0 9 -7 30 -15 45 -8 16 -15 37 -15 46 0 9 -4 19 -9 22 -5 3 -12 18 -15 33 -4 16 -14 44 -23 63 -9 19 -22 49 -29 65 -23 56 -76 170 -85 185 -5 8 -11 21 -14 28 -3 6 -7 18 -10 25 -3 6 -25 48 -50 92 -25 44 -52 94 -60 110 -9 17 -23 42 -33 56 -9 15 -35 55 -56 90 -22 35 -58 89 -80 119 -23 30 -50 69 -60 85 -11 17 -39 53 -63 81 -23 28 -43 54 -43 58 0 3 -8 14 -17 24 -10 10 -49 55 -88 101 -72 86 -289 309 -361 371 -22 19 -62 53 -89 75 -27 22 -56 47 -65 55 -8 8 -31 26 -50 40 -19 13 -37 27 -40 30 -6 7 -87 68 -120 90 -12 8 -28 21 -36 28 -7 6 -15 12 -18 12 -2 0 -42 25 -88 56 -46 31 -92 60 -103 65 -11 5 -33 18 -50 29 -16 11 -39 24 -50 30 -11 6 -47 26 -80 44 -71 40 -134 72 -230 115 -67 31 -84 38 -150 66 -16 6 -47 20 -68 29 -21 9 -42 16 -48 16 -6 0 -25 6 -42 13 -48 21 -98 38 -142 49 -22 6 -44 15 -50 19 -5 5 -20 9 -33 9 -13 0 -38 6 -55 14 -33 15 -94 30 -186 47 -30 5 -59 13 -64 16 -13 8 -145 30 -252 43 -44 5 -91 12 -105 15 -41 10 -418 34 -515 33 -49 -1 -175 -7 -280 -14z m2467 -1088 c72 -19 109 -40 146 -80 102 -112 95 -263 -17 -373 -29 -29 -61 -53 -70 -53 -9 0 -23 -6 -29 -12 -10 -10 -394 -14 -1837 -16 -1004 -1 -1825 -4 -1825 -6 0 -2 376 -378 836 -837 627 -626 842 -846 861 -884 37 -69 38 -183 3 -241 -32 -54 -105 -123 -138 -130 -15 -3 -37 -10 -50 -15 -44 -17 -102 -8 -182 30 -32 14 -2142 2114 -2212 2201 -16 19 -28 41 -28 50 0 9 -5 21 -10 26 -22 22 -15 126 12 184 39 86 91 131 177 155 72 20 4289 21 4363 1z m-4182 -2144 c48 -22 202 -173 1141 -1112 685 -686 1095 -1104 1110 -1131 l24 -44 0 -985 0 -985 -23 -40 c-25 -46 -89 -115 -106 -115 -6 0 -24 -8 -41 -17 -43 -23 -150 -22 -200 1 -61 29 -112 76 -142 129 -17 30 -18 88 -21 931 l-3 898 -1040 1040 c-834 833 -1044 1048 -1060 1084 -55 131 11 296 140 352 86 36 132 35 221 -6z"/>
    </g>
</svg>