<svg width="24" height="24" viewBox="0 0 24 24" fill="none" xmlns="http://www.w3.org/2000/svg">
    <path d="M10 17L15 12M15 12L10 7M15 12H3" stroke="currentColor" stroke-width="2" stroke-linecap="round" stroke-linejoin="round"/>
    <path d="M19 4V20C19 20.5304 18.7893 21.0391 18.4142 21.4142C18.0391 21.7893 17.5304 22 17 22H7C6.46957 22 5.96086 21.7893 5.58579 21.4142C5.21071 21.0391 5 20.5304 5 20V4C5 3.46957 5.21071 2.96086 5.58579 2.58579C5.96086 2.21071 6.46957 2 7 2H17C17.5304 2 18.0391 2.21071 18.4142 2.58579C18.7893 2.96086 19 3.46957 19 4Z" stroke="currentColor" stroke-width="2" stroke-linecap="round" stroke-linejoin="round"/>
</svg>
