<?xml version="1.0" encoding="UTF-8"?>
<!DOCTYPE svg PUBLIC "-//W3C//DTD SVG 1.1//EN" "http://www.w3.org/Graphics/SVG/1.1/DTD/svg11.dtd">
<svg xmlns="http://www.w3.org/2000/svg" version="1.1" width="1080px" height="1114px" style="shape-rendering:geometricPrecision; text-rendering:geometricPrecision; image-rendering:optimizeQuality; fill-rule:evenodd; clip-rule:evenodd" xmlns:xlink="http://www.w3.org/1999/xlink">
<g><path style="opacity:0.981" fill="#010101" d="M 749.5,-0.5 C 768.833,-0.5 788.167,-0.5 807.5,-0.5C 904.307,5.65273 983.807,45.6527 1046,119.5C 1064.4,144.694 1074.07,173.027 1075,204.5C 1076.55,238.765 1074.22,272.765 1068,306.5C 1045.13,424.47 1002.96,534.97 941.5,638C 948.183,638.333 954.85,637.999 961.5,637C 977.89,634.657 994.224,631.99 1010.5,629C 1030.73,626.307 1048.73,631.307 1064.5,644C 1071.43,651.044 1076.43,659.211 1079.5,668.5C 1079.5,678.5 1079.5,688.5 1079.5,698.5C 1074,713.641 1065.33,726.808 1053.5,738C 1007.32,778.294 953.322,798.961 891.5,800C 879.817,800.666 868.15,800.499 856.5,799.5C 854.596,829.164 852.43,858.831 850,888.5C 846.584,930.83 836.584,971.496 820,1010.5C 796.842,1059.18 759.008,1090.02 706.5,1103C 688.626,1107.92 670.626,1111.42 652.5,1113.5C 644.833,1113.5 637.167,1113.5 629.5,1113.5C 582.142,1108.32 548.642,1083.98 529,1040.5C 513.087,1004.85 504.087,967.514 502,928.5C 499.961,895.836 498.127,863.17 496.5,830.5C 446.943,848.914 397.276,849.08 347.5,831C 332.492,825.252 319.659,816.419 309,804.5C 277.537,830.758 242.704,836.258 204.5,821C 187.684,812.525 172.851,801.358 160,787.5C 132.156,753.513 110.156,715.846 94,674.5C 50.7086,563.672 20.3753,449.338 3,331.5C -1.85521,285.851 0.144794,240.518 9,195.5C 34.9174,88.2543 102.751,28.421 212.5,16C 285.747,10.7973 356.914,20.6306 426,45.5C 467.823,21.9601 512.823,10.2935 561,10.5C 589.735,10.9023 618.235,13.569 646.5,18.5C 680.272,8.41033 714.605,2.077 749.5,-0.5 Z"/></g>
<g><path style="opacity:1" fill="#fdfdfd" d="M 753.5,29.5 C 823.182,24.3996 888.182,39.2329 948.5,74C 978.746,92.907 1004.58,116.74 1026,145.5C 1034.94,160.974 1040.27,177.641 1042,195.5C 1044.28,241.022 1040.28,286.022 1030,330.5C 1002,448.136 955.168,557.469 889.5,658.5C 893.873,662.028 898.873,664.528 904.5,666C 923.433,668.982 942.433,669.316 961.5,667C 977.613,664.981 993.613,662.315 1009.5,659C 1018.77,657.74 1027.77,658.74 1036.5,662C 1048.1,669.483 1051.27,679.649 1046,692.5C 1037.59,706.907 1026.43,718.741 1012.5,728C 976.344,752.382 936.344,765.382 892.5,767C 875.026,768.246 857.693,767.246 840.5,764C 838,763.625 835.667,762.792 833.5,761.5C 825.983,827.337 817.149,893.004 807,958.5C 802.335,991.327 788.502,1019.49 765.5,1043C 748.682,1056.91 729.682,1066.91 708.5,1073C 680.858,1082.4 652.525,1085.4 623.5,1082C 592.309,1074.99 568.475,1057.83 552,1030.5C 541.032,1012.26 534.032,992.596 531,971.5C 525.844,931.679 523.178,891.679 523,851.5C 522.667,825.833 522.333,800.167 522,774.5C 493.437,799.749 459.937,812.082 421.5,811.5C 395.051,811.711 370.051,805.878 346.5,794C 337.611,789.444 331.111,782.61 327,773.5C 323.508,760.977 327.008,750.81 337.5,743C 342.498,739.25 347.998,736.417 354,734.5C 372.751,729.416 391.584,724.582 410.5,720C 421.189,716.977 430.023,711.144 437,702.5C 442,696.167 447,689.833 452,683.5C 452.483,682.552 452.649,681.552 452.5,680.5C 443.348,680.87 434.348,679.87 425.5,677.5C 413.31,674.384 401.643,670.217 390.5,665C 356.425,701.738 323.092,739.071 290.5,777C 258.815,802.955 227.148,802.955 195.5,777C 175.467,757.421 158.967,735.254 146,710.5C 132.018,683.204 119.684,655.204 109,626.5C 73.1927,526.748 47.8594,424.414 33,319.5C 28.4965,273.883 31.8298,228.883 43,184.5C 66.4739,108.502 117.307,63.0017 195.5,48C 232.435,42.4678 269.435,42.1345 306.5,47C 348.792,52.6982 389.959,62.8648 430,77.5C 478.538,47.4956 531.372,35.6623 588.5,42C 606.467,44.0222 624.3,46.8556 642,50.5C 678.426,38.7799 715.592,31.7799 753.5,29.5 Z"/></g>
<g><path style="opacity:1" fill="#336791" d="M 756.5,60.5 C 807.08,57.6512 855.746,65.8179 902.5,85C 941.144,102.309 973.311,127.809 999,161.5C 1003.71,169.26 1007.04,177.593 1009,186.5C 1012.56,219.237 1011.9,251.904 1007,284.5C 983.572,408.322 938.239,523.322 871,629.5C 868.791,627.627 866.958,625.46 865.5,623C 879.923,598.489 888.089,571.989 890,543.5C 890.667,532.833 890.667,522.167 890,511.5C 885.994,481.443 883.16,451.276 881.5,421C 884.138,390.729 887.638,360.562 892,330.5C 892.894,318.118 892.561,305.785 891,293.5C 865.594,215.789 820.427,152.289 755.5,103C 736.977,89.898 717.31,78.5646 696.5,69C 707.677,66.2596 719.011,64.2596 730.5,63C 739.334,62.3156 748.001,61.4822 756.5,60.5 Z"/></g>
<g><path style="opacity:1" fill="#336791" d="M 538.5,72.5 C 662.932,68.7911 758.432,119.124 825,223.5C 831,234.167 837,244.833 843,255.5C 848.35,266.528 852.85,277.862 856.5,289.5C 835.768,287.743 815.101,288.243 794.5,291C 742.316,304.138 719.482,337.638 726,391.5C 730.484,421.284 738.817,449.951 751,477.5C 765.849,510.868 782.516,543.201 801,574.5C 813.227,603.983 829.727,630.65 850.5,654.5C 828.105,661.395 813.605,676.061 807,698.5C 800.025,785.964 789.359,872.964 775,959.5C 770.857,982.284 761.024,1002.12 745.5,1019C 726.969,1033.76 705.969,1043.43 682.5,1048C 625.709,1063.86 587.209,1044.36 567,989.5C 564.465,980.622 562.465,971.622 561,962.5C 553.74,881.654 551.573,800.654 554.5,719.5C 553.534,694.049 542.2,674.883 520.5,662C 509.725,656.477 498.391,654.644 486.5,656.5C 495.063,627.314 505.896,598.981 519,571.5C 537.822,525.229 544.489,477.229 539,427.5C 536.663,397.814 530.996,368.814 522,340.5C 508.549,312.075 486.049,296.575 454.5,294C 428.214,292.648 402.881,296.981 378.5,307C 367.926,311.287 357.592,316.12 347.5,321.5C 349.743,268.532 363.243,218.532 388,171.5C 421.007,112.57 471.174,79.5697 538.5,72.5 Z"/></g>
<g><path style="opacity:1" fill="#336791" d="M 230.5,74.5 C 289.138,73.2953 346.138,82.2953 401.5,101.5C 367.389,138.033 343.889,180.7 331,229.5C 321.554,263.179 315.887,297.512 314,332.5C 314.538,362.997 315.372,393.497 316.5,424C 316.378,452.005 314.212,479.838 310,507.5C 306.124,562.741 324.29,609.074 364.5,646.5C 332.609,681.555 301.276,717.055 270.5,753C 262.626,760.021 253.459,764.187 243,765.5C 232.531,764.182 223.364,760.015 215.5,753C 198.953,737.063 185.453,718.896 175,698.5C 148.71,646.247 127.71,591.914 112,535.5C 91.1069,464.26 75.1069,391.927 64,318.5C 62.0125,292.499 62.0125,266.499 64,240.5C 73.5808,138.752 129.081,83.4187 230.5,74.5 Z"/></g>
<g><path style="opacity:1" fill="#346791" d="M 811.5,319.5 C 827.879,319.222 844.212,319.889 860.5,321.5C 860.569,329.202 860.069,336.869 859,344.5C 854.384,369.808 851.551,395.308 850.5,421C 851.46,448.643 853.96,476.143 858,503.5C 858.667,518.833 858.667,534.167 858,549.5C 856.312,564.925 852.145,579.592 845.5,593.5C 833.112,568.389 819.945,543.722 806,519.5C 787.118,485.075 772.118,449.075 761,411.5C 756.885,395.399 755.552,379.066 757,362.5C 760.236,343.928 770.736,331.428 788.5,325C 796.189,322.7 803.855,320.867 811.5,319.5 Z"/></g>
<g><path style="opacity:1" fill="#336791" d="M 433.5,324.5 C 445.797,323.709 457.797,325.209 469.5,329C 485.397,336.909 494.897,349.742 498,367.5C 507.586,408.008 510.919,449.008 508,490.5C 505.823,511.874 500.823,532.541 493,552.5C 484.724,571.385 476.724,590.385 469,609.5C 463.92,622.573 459.753,635.906 456.5,649.5C 413.655,647.475 381.155,628.142 359,591.5C 344.965,566.293 338.965,539.293 341,510.5C 344.08,491.29 346.08,471.956 347,452.5C 347.559,421.479 347.226,390.479 346,359.5C 372.459,341.069 401.626,329.402 433.5,324.5 Z"/></g>
<g><path style="opacity:1" fill="#fcfdfd" d="M 801.5,334.5 C 807.842,334.334 814.175,334.5 820.5,335C 830.411,336.216 833.578,341.382 830,350.5C 819.417,366.27 805.584,370.103 788.5,362C 785.333,360.167 782.833,357.667 781,354.5C 778.177,347.968 780.011,343.135 786.5,340C 791.447,337.692 796.447,335.859 801.5,334.5 Z"/></g>
<g><path style="opacity:1" fill="#fcfdfd" d="M 437.5,342.5 C 451.626,341.02 464.96,343.52 477.5,350C 484.464,355.289 485.297,361.455 480,368.5C 462.415,383.994 445.748,382.994 430,365.5C 426.161,360.448 424.661,354.782 425.5,348.5C 429.497,346.502 433.497,344.502 437.5,342.5 Z"/></g>
<g><path style="opacity:1" fill="#356892" d="M 867.5,682.5 C 880.714,691.596 895.381,697.096 911.5,699C 926.167,699.667 940.833,699.667 955.5,699C 972.935,696.988 990.269,694.654 1007.5,692C 975.561,718.878 938.561,733.211 896.5,735C 882.5,735.667 868.5,735.667 854.5,735C 848.133,734.329 842.133,732.496 836.5,729.5C 834.14,717.469 835.973,706.136 842,695.5C 843.5,694 845,692.5 846.5,691C 853.297,687.462 860.297,684.628 867.5,682.5 Z"/></g>
<g><path style="opacity:1" fill="#346891" d="M 491.5,687.5 C 504.891,686.738 514.391,692.405 520,704.5C 526.123,717.286 524.123,728.619 514,738.5C 489.951,766.252 459.451,780.252 422.5,780.5C 403.495,780.399 385.162,776.899 367.5,770C 365.004,768.92 362.67,767.586 360.5,766C 363.352,764.409 366.352,763.076 369.5,762C 384.167,758.667 398.833,755.333 413.5,752C 432.442,747.115 448.275,737.282 461,722.5C 469.942,709.728 480.109,698.061 491.5,687.5 Z"/></g>
</svg>
